<svg width="73" height="98" viewBox="0 0 73 98" fill="none" xmlns="http://www.w3.org/2000/svg">
<path d="M68.423 11.9999C64.3617 14.9332 57.5017 22.7198 50.3604 31.2798C43.2203 39.8265 35.5137 48.8932 26.8044 58.0132C18.095 67.1332 9.01235 76.9332 2.49902 85.1199C-4.01432 93.3065 3.73235 101.013 8.39368 95.8799C8.39368 95.8799 18.6657 86.5333 27.2617 76.5599C35.8603 66.5866 43.8617 57.0932 51.831 48.5999C59.8004 40.1066 67.2377 32.1333 70.2617 27.8266C76.5377 19.7732 65.1697 15.7332 68.423 11.9999Z" fill="black"/>
<path d="M0 6.55561C0.333333 7.55561 1.41867 9.329 2.70534 11.1423C3.98934 12.969 5.43999 14.8757 7.02399 16.9024C8.60932 18.929 10.336 21.0757 16.0853 28.0757C21.8347 35.0757 30.46 45.6624 37.0573 54.7957C43.6533 63.929 48.8587 71.0757 52.8613 76.0624C56.8627 81.0357 59.672 83.8224 60.82 85.169C61.9693 86.5024 70.568 79.8623 69.8746 78.8757C69.8746 78.8757 68.708 76.6357 66.164 72.409C63.62 68.1823 59.2546 62.3824 53.1813 54.8624C47.108 47.3557 39.4613 38.0356 30.908 26.3156C22.3546 14.5956 20.6027 12.2357 18.9027 10.0624C17.204 7.88905 15.5507 5.9023 13.932 4.11564C12.3147 2.31564 10.7267 0.728996 9.76266 0.14233C8.152 -1.191 0.645333 7.30228 0 6.55561Z" fill="black"/>
</svg>
