<svg width="198" height="201" viewBox="0 0 198 201" fill="none" xmlns="http://www.w3.org/2000/svg">
<path d="M157.991 186.789L180.89 162.653L149.899 130L127 154.136L157.991 186.789Z" fill="black"/>
<path d="M84 200.172H116.386V154H84V200.172Z" fill="black"/>
<path d="M14 156.643L36.8988 180.779L67.8897 148.127L44.9821 124L14 156.643Z" fill="black"/>
<path d="M197.822 118.132V83.9998H154V118.132H197.822Z" fill="black"/>
<path d="M178.89 39.1364L155.982 15L125 47.6527L147.899 71.7891L178.89 39.1364Z" fill="black"/>
<path d="M36.908 19L14 43.1266L44.9909 75.7793L67.8989 51.643L36.908 19Z" fill="black"/>
<path d="M0 83.9998V118.123H43.8224V83.9998H0Z" fill="black"/>
<path d="M115.887 4.57764e-05H83.4912V46.1719H115.887V4.57764e-05Z" fill="black"/>
<path d="M98.7333 59.2231C78.2448 59.2231 61.5804 76.7811 61.5804 98.3682C61.5804 119.955 78.2448 137.513 98.7333 137.513C119.222 137.513 135.886 119.955 135.886 98.3682C135.886 76.7811 119.222 59.2231 98.7333 59.2231ZM98.7333 167.626C62.4866 167.626 33 136.558 33 98.3682C33 60.1779 62.4866 29.1102 98.7333 29.1102C134.98 29.1102 164.467 60.1779 164.467 98.3682C164.467 136.558 134.98 167.626 98.7333 167.626Z" fill="black"/>
</svg>
