<svg width="1428" height="1425" viewBox="0 0 1428 1425" fill="none" xmlns="http://www.w3.org/2000/svg">
<g filter="url(#filter0_d_768_480)">
<path d="M706.84 551.033C715.302 551.033 722.167 544.166 722.167 535.693V25.8398C722.167 17.3826 715.304 10.5 706.84 10.5C698.364 10.5001 691.5 17.381 691.5 25.8398V535.693C691.5 544.167 698.366 551.033 706.84 551.033Z" fill="#E600FF" stroke="#E600FF" stroke-width="5"/>
<path d="M1401.69 737.167C1410.17 737.167 1417.03 730.303 1417.03 721.841C1417.03 713.367 1410.17 706.5 1401.69 706.5H891.84C883.366 706.5 876.5 713.367 876.5 721.841C876.5 730.303 883.368 737.167 891.84 737.167H1401.69Z" fill="#E600FF" stroke="#E600FF" stroke-width="5"/>
<path d="M706.309 1146.73L709.582 1146.71C725.957 1146.55 742.41 1145.39 758.861 1143.2C775.197 1141.03 791.451 1137.87 807.547 1133.71L810.765 1132.86L810.766 1132.86C918.925 1103.87 1005.11 1033.78 1056.99 943.906C1108.89 854.022 1126.51 744.329 1097.53 636.183C1068.55 528.023 998.465 441.836 908.595 389.944C818.698 338.04 709.018 320.437 600.859 349.415C592.682 351.599 587.84 359.998 590.022 368.168C592.172 376.218 600.345 381.035 608.394 379.102L608.776 379.005L608.778 379.004C708.792 352.209 810.179 368.473 893.255 416.435C976.344 464.41 1041.13 544.09 1067.93 644.09C1094.74 744.104 1078.48 845.491 1030.5 928.566H1030.5C982.524 1011.67 902.858 1076.46 802.845 1103.25C786.72 1107.57 770.706 1110.77 754.882 1112.87H754.88C738.563 1115.06 722.339 1116.13 706.301 1116.16V1116.16C697.853 1116.16 691.018 1123.01 691.018 1131.44C691.018 1139.89 697.857 1146.73 706.305 1146.73H706.309Z" fill="#E600FF" stroke="#E600FF" stroke-width="5"/>
<path d="M694.387 1025.26C776.636 1025.26 851.118 991.924 905.021 938.021C958.924 884.117 992.26 809.636 992.26 727.387C992.26 718.914 985.396 712.046 976.934 712.046C968.459 712.046 961.594 718.913 961.594 727.387C961.594 801.177 931.689 867.975 883.326 916.325H883.325C834.975 964.689 768.177 994.593 694.387 994.593C621.173 994.593 554.829 965.155 506.571 917.456L505.435 916.325C457.071 867.975 427.167 801.177 427.167 727.387C427.167 654.173 456.605 587.829 504.304 539.571L505.435 538.435C553.785 490.071 620.596 460.167 694.387 460.167C702.847 460.167 709.713 453.3 709.713 444.84C709.713 436.367 702.849 429.5 694.387 429.5C612.124 429.5 537.655 462.849 483.752 516.752C429.849 570.642 396.5 645.124 396.5 727.387C396.5 809.636 429.849 884.118 483.752 938.021C537.655 991.924 612.124 1025.26 694.387 1025.26Z" fill="#E600FF" stroke="#E600FF" stroke-width="5"/>
<path d="M693.733 1236.95C702.194 1236.95 709.06 1230.09 709.06 1221.63C709.059 1213.15 702.196 1206.29 693.733 1206.29C560.962 1206.29 440.678 1152.89 353.149 1066.41L351.088 1064.37C263.404 976.668 209.167 855.537 209.167 721.733C209.167 587.917 263.404 466.785 351.087 379.088C438.784 291.404 559.916 237.166 693.733 237.166C827.537 237.166 948.682 291.404 1036.37 379.087C1124.05 466.784 1178.29 587.916 1178.29 721.733C1178.29 730.196 1185.15 737.06 1193.63 737.06C1202.09 737.059 1208.95 730.194 1208.95 721.733C1208.95 579.457 1151.28 450.642 1058.05 357.405C964.812 264.169 835.996 206.5 693.733 206.5C551.457 206.5 422.642 264.169 329.405 357.405C236.169 450.642 178.5 579.457 178.5 721.733C178.5 864.01 236.169 992.812 329.405 1086.05C422.642 1179.28 551.457 1236.95 693.733 1236.95Z" fill="#E600FF" stroke="#E600FF" stroke-width="5"/>
<path d="M537.493 737.167C545.965 737.167 552.833 730.303 552.833 721.841C552.833 713.367 545.967 706.5 537.493 706.5H25.8262C17.3639 706.5 10.5 713.369 10.5 721.841C10.5002 730.301 17.3658 737.167 25.8262 737.167H537.493Z" fill="#E600FF" stroke="#E600FF" stroke-width="5"/>
<path d="M706.84 1414.03C715.302 1414.03 722.167 1407.17 722.167 1398.69V888.84C722.167 880.368 715.302 873.5 706.84 873.5C698.366 873.5 691.5 880.366 691.5 888.84V1398.69C691.5 1407.17 698.366 1414.03 706.84 1414.03Z" fill="#E600FF" stroke="#E600FF" stroke-width="5"/>
<path d="M707.373 904.233C757.863 904.233 803.585 883.765 836.675 850.675C869.764 817.585 890.233 771.863 890.233 721.373C890.233 670.87 869.764 625.148 836.675 592.059C803.585 558.969 757.863 538.5 707.373 538.5C656.87 538.5 611.148 558.969 578.059 592.059C544.969 625.148 524.5 670.87 524.5 721.373C524.5 729.834 531.367 736.7 539.827 736.7C548.299 736.7 555.167 729.835 555.167 721.373C555.167 679.343 572.204 641.292 599.741 613.741L601.04 612.459C628.482 585.676 666 569.167 707.373 569.167C749.403 569.167 787.441 586.204 814.992 613.741L816.275 615.04C843.058 642.481 859.566 680 859.566 721.373C859.566 763.403 842.53 801.441 814.992 828.992V828.993C787.442 856.53 749.403 873.566 707.373 873.566C698.899 873.567 692.033 880.433 692.033 888.907C692.033 897.369 698.901 904.233 707.373 904.233Z" fill="#E600FF" stroke="#E600FF" stroke-width="5"/>
<path d="M706.72 773.927C736.1 773.927 759.927 750.1 759.927 720.72C759.927 691.326 736.101 667.5 706.72 667.5C677.326 667.5 653.5 691.326 653.5 720.72C653.5 750.101 677.326 773.927 706.72 773.927Z" fill="#E600FF" stroke="#E600FF" stroke-width="5"/>
</g>
<defs>
<filter id="filter0_d_768_480" x="0" y="0" width="1427.53" height="1424.53" filterUnits="userSpaceOnUse" color-interpolation-filters="sRGB">
<feFlood flood-opacity="0" result="BackgroundImageFix"/>
<feColorMatrix in="SourceAlpha" type="matrix" values="0 0 0 0 0 0 0 0 0 0 0 0 0 0 0 0 0 0 127 0" result="hardAlpha"/>
<feOffset/>
<feGaussianBlur stdDeviation="4"/>
<feComposite in2="hardAlpha" operator="out"/>
<feColorMatrix type="matrix" values="0 0 0 0 0.901961 0 0 0 0 0 0 0 0 0 1 0 0 0 1 0"/>
<feBlend mode="normal" in2="BackgroundImageFix" result="effect1_dropShadow_768_480"/>
<feBlend mode="normal" in="SourceGraphic" in2="effect1_dropShadow_768_480" result="shape"/>
</filter>
</defs>
</svg>
