<svg width="32" height="32" viewBox="0 0 32 32" fill="none" xmlns="http://www.w3.org/2000/svg">
<path d="M8.42467 7.0794C8.42467 8.5347 7.24491 9.71446 5.7896 9.71446C4.3343 9.71446 3.15454 8.5347 3.15454 7.0794C3.15454 5.62409 4.3343 4.44434 5.7896 4.44434C7.24491 4.44434 8.42467 5.62409 8.42467 7.0794Z" fill="#9F3F33"/>
<path d="M16.3299 7.0794C16.3299 8.5347 15.1501 9.71446 13.6948 9.71446C12.2395 9.71446 11.0597 8.5347 11.0597 7.0794C11.0597 5.62409 12.2395 4.44434 13.6948 4.44434C15.1501 4.44434 16.3299 5.62409 16.3299 7.0794Z" fill="#9F3F33"/>
<path d="M24.235 7.0794C24.235 8.5347 23.0553 9.71446 21.6 9.71446C20.1447 9.71446 18.9649 8.5347 18.9649 7.0794C18.9649 5.62409 20.1447 4.44434 21.6 4.44434C23.0553 4.44434 24.235 5.62409 24.235 7.0794Z" fill="#9F3F33"/>
<path d="M20.2825 24.7503C20.2825 26.2056 19.1027 27.3853 17.6474 27.3853C16.1921 27.3853 15.0123 26.2056 15.0123 24.7503C15.0123 23.295 16.1921 22.1152 17.6474 22.1152C19.1027 22.1152 20.2825 23.295 20.2825 24.7503Z" fill="#9F3F33"/>
<path d="M12.3773 24.7503C12.3773 26.2056 11.1975 27.3853 9.7422 27.3853C8.28689 27.3853 7.10714 26.2056 7.10714 24.7503C7.10714 23.295 8.28689 22.1152 9.7422 22.1152C11.1975 22.1152 12.3773 23.295 12.3773 24.7503Z" fill="#9F3F33"/>
<path d="M6.77734 14.9272H12.7061V10.9741H14.6826V14.9272H20.6113V10.9741H22.5879V14.9272H28.0479V11.5942L32 15.5464L28.0479 19.4995V16.9028H18.6357V20.856H16.6592V16.9028H10.7305V20.856H8.75391V16.9028H0V14.9272H4.80078V10.9741H6.77734V14.9272Z" fill="#9F3F33"/>
</svg>
