<svg width="40" height="40" viewBox="0 0 40 40" fill="none" xmlns="http://www.w3.org/2000/svg">
<path d="M10.53 8.84949C10.53 10.6686 9.05534 12.1433 7.23621 12.1433C5.41708 12.1433 3.94238 10.6686 3.94238 8.84949C3.94238 7.03036 5.41708 5.55566 7.23621 5.55566C9.05534 5.55566 10.53 7.03036 10.53 8.84949Z" fill="#333333"/>
<path d="M20.4115 8.84949C20.4115 10.6686 18.9368 12.1433 17.1177 12.1433C15.2986 12.1433 13.8239 10.6686 13.8239 8.84949C13.8239 7.03036 15.2986 5.55566 17.1177 5.55566C18.9368 5.55566 20.4115 7.03036 20.4115 8.84949Z" fill="#333333"/>
<path d="M30.293 8.84949C30.293 10.6686 28.8183 12.1433 26.9992 12.1433C25.1801 12.1433 23.7054 10.6686 23.7054 8.84949C23.7054 7.03036 25.1801 5.55566 26.9992 5.55566C28.8183 5.55566 30.293 7.03036 30.293 8.84949Z" fill="#333333"/>
<path d="M25.3523 30.9381C25.3523 32.7572 23.8776 34.2319 22.0584 34.2319C20.2393 34.2319 18.7646 32.7572 18.7646 30.9381C18.7646 29.119 20.2393 27.6443 22.0584 27.6443C23.8776 27.6443 25.3523 29.119 25.3523 30.9381Z" fill="#333333"/>
<path d="M15.4708 30.9381C15.4708 32.7572 13.9961 34.2319 12.177 34.2319C10.3578 34.2319 8.88313 32.7572 8.88313 30.9381C8.88313 29.119 10.3578 27.6443 12.177 27.6443C13.9961 27.6443 15.4708 29.119 15.4708 30.9381Z" fill="#333333"/>
<path d="M8.4707 18.6592H15.8818V13.7178H18.3525V18.6592H25.7637V13.7178H28.2334V18.6592H35.0586V14.4932L40 19.4336L35.0586 24.374V21.1289H23.293V26.0703H20.8232V21.1289H13.4121V26.0703H10.9414V21.1289H0V18.6592H6.00098V13.7178H8.4707V18.6592Z" fill="#333333"/>
</svg>
