<svg width="600" height="24" viewBox="0 0 600 24" fill="none" xmlns="http://www.w3.org/2000/svg">
<path d="M203 20C204.104 20 205 20.8957 205 22C205 23.1046 204.105 24 203 24C201.895 24 201 23.1046 201 22C201 20.8957 201.896 20 203 20ZM396.499 20C397.603 20.0003 398.499 20.8959 398.499 22C398.499 23.1044 397.603 23.9997 396.499 24C395.394 24 394.499 23.1046 394.499 22C394.499 20.8957 395.395 20 396.499 20ZM409.499 2.5C413.097 2.50018 416.455 4.54334 419.265 6.53223C420.755 7.58698 421.96 8.52927 423.216 9.39648C424.383 10.2023 425.35 10.7603 426.148 11H430.625C431.069 9.27495 432.635 8 434.499 8C436.362 8.00022 437.929 9.2751 438.373 11H445.769C446.115 10.4028 446.759 10 447.499 10C448.239 10.0002 448.883 10.4029 449.229 11H591.625C592.069 9.27495 593.635 8 595.499 8C597.708 8.00026 599.499 9.7913 599.499 12C599.499 14.209 597.708 15.9997 595.499 16C593.635 16 592.069 14.7253 591.625 13H449.229C448.884 13.5973 448.239 13.9998 447.499 14C446.759 14 446.114 13.5974 445.769 13H438.373C437.929 14.7252 436.363 15.9998 434.499 16C432.635 16 431.069 14.7253 430.625 13H426.362C424.563 14.518 421.77 16.6654 418.865 18.4736C417.333 19.427 415.751 20.2992 414.255 20.9355C412.776 21.5644 411.298 21.9999 409.999 22C407.197 22 404.956 21.7502 402.77 20.3398C400.733 19.0258 398.846 16.7675 396.499 13.0791C394.152 16.7671 392.265 19.0257 390.229 20.3398C388.042 21.7502 385.801 22 382.999 22C381.7 22 380.222 21.5644 378.743 20.9355C377.247 20.2992 375.665 19.4271 374.133 18.4736C371.228 16.6653 368.435 14.518 366.636 13H361.373C360.929 14.7252 359.363 15.9998 357.499 16C355.635 16 354.069 14.7253 353.625 13H346.229C345.884 13.5973 345.239 13.9998 344.499 14C343.759 14 343.114 13.5974 342.769 13H256.73C256.385 13.5974 255.74 14 255 14C254.26 14 253.615 13.5974 253.27 13H245.874C245.43 14.7253 243.864 16 242 16C240.136 16 238.57 14.7253 238.126 13H232.863C231.064 14.518 228.271 16.6653 225.366 18.4736C223.834 19.4271 222.252 20.2992 220.756 20.9355C219.277 21.5644 217.799 22 216.5 22C213.698 22 211.457 21.7503 209.271 20.3398C207.234 19.0258 205.347 16.7673 203 13.0791C200.653 16.7673 198.766 19.0258 196.729 20.3398C194.543 21.7503 192.302 22 189.5 22C188.201 22 186.723 21.5644 185.244 20.9355C183.748 20.2992 182.166 19.4271 180.634 18.4736C177.729 16.6653 174.936 14.518 173.137 13H168.874C168.43 14.7253 166.864 16 165 16C163.136 16 161.57 14.7253 161.126 13H153.73C153.385 13.5974 152.74 14 152 14C151.26 14 150.615 13.5974 150.27 13H7.87402C7.43005 14.7253 5.86391 16 4 16C1.79086 16 0 14.2091 0 12C0.000319516 9.79113 1.79106 8 4 8C5.86365 8 7.4298 9.27495 7.87402 11H150.27C150.616 10.4028 151.26 10 152 10C152.74 10 153.384 10.4028 153.73 11H161.126C161.57 9.27495 163.136 8 165 8C166.864 8 168.43 9.27495 168.874 11H173.351C174.149 10.7603 175.116 10.2024 176.283 9.39648C177.539 8.52928 178.744 7.58697 180.234 6.53223C183.044 4.5433 186.402 2.5 190 2.5C192.991 2.5 195.362 2.61179 197.615 3.87891C199.434 4.90203 201.089 6.62716 203 9.40723C204.911 6.62716 206.566 4.90203 208.385 3.87891C210.638 2.61179 213.009 2.5 216 2.5C219.598 2.5 222.956 4.5433 225.766 6.53223C227.256 7.58697 228.461 8.52928 229.717 9.39648C230.884 10.2024 231.851 10.7603 232.649 11H238.126C238.57 9.27495 240.136 8 242 8C243.864 8 245.43 9.27495 245.874 11H253.27C253.616 10.4028 254.26 10 255 10C255.74 10 256.384 10.4028 256.73 11H342.769C343.115 10.4028 343.759 10 344.499 10C345.239 10.0002 345.883 10.4029 346.229 11H353.625C354.069 9.27495 355.635 8 357.499 8C359.362 8.00022 360.929 9.2751 361.373 11H366.85C367.648 10.7602 368.616 10.2022 369.782 9.39648C371.038 8.52934 372.244 7.58687 373.733 6.53223C376.543 4.54337 379.901 2.5 383.499 2.5C386.49 2.50001 388.862 2.61177 391.114 3.87891C392.933 4.90207 394.588 6.62713 396.499 9.40723C398.41 6.62729 400.065 4.902 401.884 3.87891C404.136 2.61199 406.508 2.5 409.499 2.5ZM176.316 13C177.873 14.2109 179.759 15.5744 181.69 16.7764C183.171 17.6977 184.658 18.5134 186.027 19.0957C187.414 19.6855 188.599 20 189.5 20C192.198 20 193.957 19.7497 195.646 18.6602C197.147 17.6917 198.677 16.0058 200.669 13H176.316ZM205.331 13C207.323 16.0058 208.853 17.6917 210.354 18.6602C212.043 19.7497 213.802 20 216.5 20C217.401 20 218.586 19.6855 219.973 19.0957C221.342 18.5134 222.829 17.6977 224.31 16.7764C226.241 15.5744 228.127 14.211 229.684 13H205.331ZM369.815 13C371.372 14.211 373.258 15.5744 375.189 16.7764C376.67 17.6977 378.157 18.5134 379.526 19.0957C380.913 19.6855 382.098 20 382.999 20C385.696 20 387.456 19.7496 389.145 18.6602C390.645 17.6916 392.176 16.0056 394.168 13H369.815ZM398.83 13C400.822 16.0059 402.352 17.6917 403.854 18.6602C405.542 19.7496 407.302 20 409.999 20C410.9 19.9999 412.085 19.6854 413.472 19.0957C414.841 18.5134 416.328 17.6976 417.809 16.7764C419.74 15.5743 421.627 14.211 423.184 13H398.83ZM190 4.5C187.098 4.5 184.206 6.17119 181.391 8.16406C180.091 9.0842 178.666 10.1777 177.48 11H201.662C199.679 8.03856 198.159 6.47831 196.635 5.62109C194.888 4.63857 193.008 4.5 190 4.5ZM216 4.5C212.992 4.5 211.112 4.63857 209.365 5.62109C207.841 6.47835 206.32 8.03829 204.337 11H228.52C227.334 10.1777 225.909 9.0842 224.609 8.16406C221.794 6.17119 218.902 4.5 216 4.5ZM383.499 4.5C380.597 4.5 377.705 6.17129 374.89 8.16406C373.59 9.08412 372.165 10.1777 370.979 11H395.162C393.179 8.03828 391.658 6.4784 390.134 5.62109C388.387 4.63853 386.507 4.50001 383.499 4.5ZM409.499 4.5C406.491 4.5 404.611 4.63876 402.864 5.62109C401.34 6.47829 399.82 8.03869 397.837 11H422.019C420.833 10.1777 419.408 9.08423 418.108 8.16406C415.293 6.17124 412.401 4.50019 409.499 4.5ZM203 0C204.104 0 205 0.895701 205 2C205 3.10457 204.105 4 203 4C201.895 4 201 3.10457 201 2C201 0.895701 201.896 0 203 0ZM396.499 0C397.603 0.000263743 398.499 0.895864 398.499 2C398.499 3.10441 397.603 3.99974 396.499 4C395.394 4 394.499 3.10457 394.499 2C394.499 0.895701 395.395 0 396.499 0Z" fill="#2A2722"/>
<circle cx="299.5" cy="11.4998" r="7.5" fill="#2A2722"/>
</svg>
