<svg width="79" height="80" viewBox="0 0 79 80" fill="none" xmlns="http://www.w3.org/2000/svg">
<path d="M12.668 70.7049C13.2937 76.8653 18.0164 80.377 22.9416 79.3232L22.9426 79.3242L22.9553 79.3205C25.168 78.8044 26.6166 77.6785 27.2102 76.0371C27.7873 74.4403 27.4882 72.5299 26.631 70.5614L26.6263 70.5496L26.6207 70.5378C25.8592 68.9522 24.6322 68.1866 23.4161 67.8997C22.2307 67.6201 21.0679 67.7947 20.3381 68.0471L20.5632 68.6992L20.7892 69.3503C21.3195 69.167 22.213 69.0327 23.0988 69.2415C23.953 69.443 24.8117 69.9636 25.3738 71.1304C26.1586 72.9404 26.3172 74.4493 25.9128 75.5682C25.5473 76.5786 24.6656 77.4219 22.9878 77.8892L22.6417 77.9775C18.6572 78.8229 14.6045 76.0472 14.0422 70.5812C13.9228 68.3619 14.5859 66.51 15.8443 65.1003C17.1131 63.6795 19.0307 62.6608 21.4857 62.2101L21.4925 62.2082L21.5003 62.2074C24.3693 61.6174 26.6476 62.3584 28.6384 63.7184C30.6643 65.1025 32.3637 67.1039 34.0634 69.0347C37.3498 72.7677 38.8159 75.3693 43.4257 77.2274L43.4733 77.2467L43.5229 77.2582C46.4659 77.9615 51.349 79.574 55.1496 75.5247C56.7859 73.7808 57.4508 71.8719 57.4414 70.0799C58.258 69.7475 59.6059 69.3624 61.0523 69.3989C62.7095 69.4409 64.465 70.0295 65.7616 71.8734C67.0976 73.7735 68.334 75.3423 69.8015 76.3395C71.3129 77.3661 73.0246 77.7587 75.2322 77.4268C77.9332 77.0205 78.9938 74.4327 78.9451 72.2312C78.9201 71.1046 78.6153 69.9647 78.0204 69.0814C77.4165 68.185 76.4888 67.5285 75.2764 67.5093L75.2545 68.889C75.9214 68.8996 76.4666 69.2437 76.8762 69.8514C77.2947 70.4727 77.5451 71.3424 77.5655 72.262C77.6073 74.1532 76.7201 75.8084 75.0273 76.063C73.1242 76.3492 71.7703 76.0092 70.5766 75.1983C69.3391 74.3574 68.2275 72.9825 66.8896 71.0797C65.2858 68.799 63.0734 68.0697 61.0869 68.0194C59.6147 67.9823 58.2493 68.315 57.2911 68.6603C56.9205 66.8672 55.8951 65.2857 54.5493 64.2422C51.6634 62.005 47.245 61.1723 43.4929 63.7111L43.8794 64.2827L44.2659 64.8534C47.4247 62.7161 51.187 63.3814 53.7038 65.3324C56.1322 67.2152 57.3027 71.2145 54.1439 74.5808C51.0084 77.9216 47.0764 76.6938 43.8995 75.931C39.7127 74.232 38.5163 72.0056 35.0985 68.1233C33.4408 66.2402 31.6171 64.0828 29.4163 62.5792C27.1801 61.0516 24.526 60.1766 21.222 60.8561C19.5416 61.1663 18.0445 61.7284 16.7887 62.5222C17.6466 61.2781 18.2745 59.7758 18.6447 58.0736L18.714 57.768C19.3789 54.6257 18.5927 52.0412 17.1827 49.8287C15.7501 47.5808 13.6522 45.6884 11.8229 43.9713C8.05213 40.4318 5.86547 39.1654 4.30053 34.9269C3.63919 31.7265 2.53611 27.7565 5.97541 24.7276C9.43971 21.6769 13.3989 22.9737 15.2032 25.4611C17.0729 28.0392 17.6176 31.8216 15.3813 34.9115L15.9404 35.3159L16.4985 35.7203C19.1548 32.0503 18.4637 27.6067 16.3197 24.6507C15.3197 23.2721 13.7713 22.1963 11.9909 21.769C12.3665 20.8219 12.7416 19.4675 12.7511 17.9945C12.7639 16.0071 12.1059 13.7722 9.87765 12.0966C8.01854 10.6986 6.6801 9.54454 5.87915 8.28064C5.10661 7.06147 4.80972 5.69747 5.15621 3.80375C5.46454 2.11944 7.14682 1.28466 9.03492 1.38653C9.95308 1.43615 10.814 1.71404 11.4215 2.15206C12.0159 2.58077 12.3425 3.13711 12.3319 3.80442L13.7116 3.82634C13.7308 2.6139 13.1042 1.66608 12.2275 1.03386C11.3637 0.411078 10.2345 0.0704338 9.10953 0.00960874C6.91104 -0.109037 4.29144 0.868785 3.79962 3.55562C3.39774 5.75218 3.73587 7.47551 4.71396 9.01907C5.6638 10.5179 7.1921 11.8028 9.04852 13.1988C10.85 14.5534 11.3818 16.3271 11.3712 17.9853C11.3619 19.4332 10.9341 20.7688 10.5759 21.5747C8.78549 21.5087 6.85732 22.1124 5.06302 23.6925C0.89565 27.363 2.35166 32.2948 2.9611 35.2592L2.97203 35.3092L2.98883 35.3583C4.6992 40.0255 7.25297 41.5732 10.8791 44.977C12.7546 46.7375 14.7006 48.5007 16.0194 50.57C17.3152 52.6033 17.9837 54.9041 17.303 57.7534L17.3019 57.7603L17.2998 57.768C16.7714 60.2077 15.6929 62.0925 14.2328 63.3157C12.7841 64.5292 10.9117 65.1328 8.69748 64.9429C3.24973 64.2066 0.604834 60.0623 1.58208 56.1032C2.08684 54.2191 3.00323 53.2729 4.09098 52.918C5.22281 52.549 6.72754 52.7559 8.51333 53.5997C9.65804 54.1985 10.1501 55.0722 10.3242 55.9315C10.5048 56.8238 10.3421 57.713 10.142 58.2374L10.7867 58.4831L11.4303 58.7296C11.7056 58.0081 11.9181 56.8507 11.6764 55.657C11.4283 54.4324 10.7012 53.1818 9.14133 52.3702L9.11808 52.3581C7.17807 51.4387 5.27767 51.0801 3.66351 51.6064C2.00405 52.1476 0.833633 53.5601 0.24758 55.7558L0.243488 55.7674L0.244449 55.7684C-0.965352 60.6584 2.39324 65.4913 8.5302 66.3125L8.54579 66.3147L8.5614 66.3159C10.6488 66.4983 12.5284 66.0657 14.1019 65.103C13.0578 66.6588 12.5477 68.5486 12.6656 70.6736L12.6663 70.6893L12.668 70.7049Z" fill="#2A2722"/>
</svg>
