<svg width="80" height="80" viewBox="0 0 80 80" fill="none" xmlns="http://www.w3.org/2000/svg">
<path d="M66.2979 8.66797C65.5744 2.51825 60.7966 -0.917946 55.8887 0.213867L55.8877 0.212891L55.875 0.216797C53.6709 0.768025 52.2403 1.91678 51.6729 3.56738C51.1211 5.17311 51.4506 7.07857 52.3389 9.0332L52.3438 9.04492L52.3496 9.05664C53.1362 10.6299 54.3751 11.3759 55.5957 11.6436C56.7853 11.9042 57.9452 11.7112 58.6709 11.4473L58.4355 10.7988L58.1992 10.1514C57.6719 10.3431 56.7806 10.4915 55.8916 10.2969C55.0343 10.1089 54.1675 9.60202 53.5869 8.44434C52.7734 6.64701 52.5909 5.14082 52.9775 4.01562C53.3269 2.99955 54.1951 2.14235 55.8652 1.64844L56.21 1.55469C60.1805 0.646087 64.2768 3.35708 64.9258 8.81348C65.0804 11.0306 64.4468 12.8928 63.2109 14.3223C61.9649 15.7631 60.0637 16.8121 57.6162 17.3018L57.6094 17.3037L57.6016 17.3047C54.7423 17.9401 52.4526 17.2354 50.4404 15.9072C48.3928 14.5555 46.6618 12.5813 44.9316 10.6777C41.5865 6.99741 40.0792 4.41936 35.4404 2.63477L35.3926 2.61621L35.3428 2.60547C32.389 1.94896 27.4808 0.414281 23.7451 4.52344C22.1367 6.29302 21.5022 8.21226 21.54 10.0039C20.7288 10.3492 19.3872 10.7557 17.9404 10.7422C16.2827 10.7265 14.5181 10.1658 13.1924 8.34277C11.8264 6.46414 10.5652 4.91517 9.08203 3.94141C7.55458 2.93885 5.83682 2.57352 3.63477 2.94043C0.94062 3.38961 -0.0788193 5.99394 0.00488281 8.19434C0.0477982 9.3204 0.370605 10.4554 0.979492 11.3291C1.59758 12.2158 2.53558 12.8574 3.74805 12.8574V11.4775C3.08107 11.4775 2.53049 11.1421 2.11133 10.541C1.68303 9.92646 1.41883 9.06077 1.38379 8.1416C1.31197 6.25139 2.17279 4.5823 3.86133 4.30078C5.75965 3.98446 7.1188 4.30287 8.3252 5.09473C9.57585 5.91587 10.7092 7.27291 12.0771 9.1543C13.7169 11.4092 15.9407 12.1033 17.9277 12.1221C19.4003 12.1358 20.7603 11.7814 21.7129 11.4209C22.1118 13.2079 23.1622 14.773 24.5244 15.7949C27.4455 17.986 31.8766 18.7485 35.5879 16.1504L35.1924 15.585L34.7969 15.0205C31.6724 17.2077 27.9001 16.6023 25.3525 14.6914C22.8945 12.8475 21.6607 8.86727 24.7656 5.45117C27.8477 2.06107 31.7987 3.22628 34.9873 3.93848C39.2006 5.57082 40.4322 7.77794 43.9111 11.6055C45.5986 13.462 47.4563 15.5902 49.6807 17.0586C51.9409 18.5505 54.6085 19.3832 57.9014 18.6514C59.5766 18.3145 61.0646 17.7288 62.3076 16.915C61.4695 18.1726 60.8656 19.6847 60.5225 21.3926L60.458 21.6992C59.8431 24.8517 60.6703 27.4234 62.1152 29.6133C63.5834 31.8381 65.7111 33.6969 67.5674 35.3848C71.3939 38.864 73.6004 40.0955 75.2324 44.3086C75.9445 47.4981 77.1105 51.4501 73.7197 54.5332C70.3043 57.6385 66.325 56.4048 64.4814 53.9463C62.5711 51.3983 61.9664 47.6249 64.1533 44.5L63.5879 44.1045L63.0234 43.709C60.4257 47.4208 61.1873 51.8528 63.3779 54.7744C64.3997 56.1369 65.965 57.1879 67.752 57.5869C67.3914 58.5399 67.0379 59.9001 67.0518 61.373C67.0706 63.3604 67.7639 65.5845 70.0186 67.2246C71.8996 68.5929 73.2562 69.7255 74.0771 70.9766C74.869 72.1833 75.1875 73.5424 74.8711 75.4414C74.5896 77.1304 72.9207 77.9918 71.0312 77.9199C70.1124 77.8849 69.2472 77.6207 68.6328 77.1924C68.0317 76.7732 67.6963 76.2221 67.6963 75.5547H66.3164C66.3164 76.7673 66.9581 77.705 67.8447 78.3232C68.7182 78.9322 69.8527 79.2549 70.9785 79.2979C73.1786 79.3816 75.7824 78.3623 76.2314 75.668C76.5984 73.4653 76.2329 71.7476 75.2305 70.2197C74.2569 68.7362 72.7084 67.4757 70.8301 66.1094C69.0074 64.7835 68.4474 63.0185 68.4316 61.3604C68.418 59.9125 68.8245 58.5702 69.1699 57.7588C70.9611 57.7963 72.8794 57.1621 74.6484 55.5537C78.757 51.8175 77.2228 46.9094 76.5664 43.9551L76.5547 43.9053L76.5371 43.8564C74.7528 39.217 72.1748 37.71 68.4951 34.3643C66.5918 32.6337 64.6181 30.9016 63.2666 28.8535C61.9387 26.8411 61.2338 24.5512 61.8691 21.6914L61.8701 21.6846L61.8721 21.6768C62.3617 19.229 63.4101 17.3273 64.8506 16.0811C66.2798 14.8447 68.1424 14.2115 70.3594 14.3662C75.8181 15.0159 78.5285 19.1177 77.6143 23.0918C77.1395 24.9837 76.2382 25.9443 75.1562 26.3164C74.0304 26.7034 72.5226 26.5204 70.7236 25.7051C69.5696 25.1245 69.0636 24.2588 68.876 23.4023C68.6812 22.5129 68.8297 21.6213 69.0215 21.0938L68.373 20.8584L67.7256 20.6221C67.4617 21.3479 67.2677 22.5085 67.5283 23.6982C67.7959 24.9187 68.5427 26.1576 70.1152 26.9443L70.1387 26.9561C72.093 27.8445 73.9989 28.173 75.6045 27.6211C77.2551 27.0536 78.403 25.6227 78.9541 23.418L78.958 23.4062L78.957 23.4053C80.089 18.4967 76.6541 13.7178 70.5049 12.9941L70.4893 12.9922L70.4736 12.9912C68.3836 12.842 66.5111 13.3043 64.9531 14.292C65.9724 12.7198 66.4524 10.8221 66.3008 8.69922L66.2998 8.68359L66.2979 8.66797Z" fill="#2A2722"/>
</svg>
