<svg width="80" height="80" viewBox="0 0 80 80" fill="none" xmlns="http://www.w3.org/2000/svg">
<path d="M70.6346 66.2976C76.7844 65.5741 80.2206 60.7963 79.0887 55.8884L79.0897 55.8875L79.0858 55.8748C78.5346 53.6706 77.3858 52.2401 75.7352 51.6726C74.1295 51.1209 72.224 51.4503 70.2694 52.3386L70.2577 52.3435L70.246 52.3494C68.6727 53.1359 67.9267 54.3749 67.6591 55.5955C67.3984 56.7851 67.5914 57.945 67.8553 58.6707L68.5038 58.4353L69.1512 58.199C68.9595 57.6716 68.8111 56.7803 69.0057 55.8914C69.1937 55.034 69.7006 54.1672 70.8583 53.5867C72.6556 52.7732 74.1618 52.5907 75.287 52.9773C76.3031 53.3267 77.1603 54.1949 77.6542 55.865L77.7479 56.2097C78.6565 60.1803 75.9455 64.2766 70.4891 64.9255C68.272 65.0802 66.4098 64.4466 64.9803 63.2107C63.5395 61.9647 62.4905 60.0634 62.0009 57.616L61.9989 57.6091L61.9979 57.6013C61.3625 54.7421 62.0672 52.4523 63.3954 50.4402C64.7471 48.3926 66.7213 46.6616 68.6249 44.9314C72.3052 41.5862 74.8833 40.079 76.6678 35.4402L76.6864 35.3923L76.6971 35.3425C77.3537 32.3888 78.8883 27.4806 74.7792 23.7449C73.0096 22.1365 71.0904 21.5019 69.2987 21.5398C68.9534 20.7286 68.5469 19.387 68.5604 17.9402C68.5761 16.2825 69.1368 14.5179 70.9598 13.1921C72.8385 11.8262 74.3874 10.565 75.3612 9.08179C76.3638 7.55434 76.7291 5.83658 76.3622 3.63453C75.913 0.940384 73.3087 -0.0790604 71.1083 0.00464348C69.9822 0.0475617 68.8472 0.370364 67.9735 0.979253C67.0868 1.59734 66.4452 2.53534 66.4452 3.74781H67.8251C67.8251 3.08083 68.1605 2.53025 68.7616 2.11109C69.3762 1.68279 70.2418 1.41859 71.161 1.38355C73.0512 1.31173 74.7203 2.17255 75.0018 3.86109C75.3182 5.75941 74.9997 7.11856 74.2079 8.32496C73.3867 9.57561 72.0297 10.709 70.1483 12.0769C67.8934 13.7167 67.1993 15.9404 67.1805 17.9275C67.1668 19.4001 67.5212 20.76 67.8817 21.7127C66.0947 22.1116 64.5296 23.162 63.5077 24.5242C61.3166 27.4453 60.5542 31.8764 63.1522 35.5877L63.7177 35.1921L64.2821 34.7966C62.0949 31.6722 62.7003 27.8998 64.6112 25.3523C66.4551 22.8943 70.4353 21.6604 73.8514 24.7654C77.2415 27.8474 76.0763 31.7985 75.3641 34.9871C73.7318 39.2003 71.5247 40.4319 67.6971 43.9109C65.8406 45.5984 63.7124 47.456 62.244 49.6804C60.7521 51.9406 59.9194 54.6083 60.6512 57.9011C60.9881 59.5764 61.5739 61.0644 62.3876 62.3074C61.13 61.4693 59.6179 60.8654 57.91 60.5222L57.6034 60.4578C54.4509 59.8429 51.8792 60.6701 49.6893 62.115C47.4645 63.5832 45.6057 65.7108 43.9178 67.5671C40.4386 71.3936 39.2071 73.6001 34.994 75.2322C31.8045 75.9443 27.8525 77.1102 24.7694 73.7195C21.6641 70.3041 22.8978 66.3248 25.3563 64.4812C27.9044 62.5708 31.6777 61.9661 34.8026 64.1531L35.1981 63.5877L35.5936 63.0232C31.8819 60.4255 27.4498 61.1871 24.5282 63.3777C23.1657 64.3994 22.1147 65.9647 21.7157 67.7517C20.7628 67.3912 19.4025 67.0377 17.9296 67.0515C15.9422 67.0703 13.7181 67.7637 12.078 70.0183C10.7097 71.8994 9.57707 73.256 8.32605 74.0769C7.1193 74.8687 5.76019 75.1872 3.86121 74.8709C2.17221 74.5893 1.31083 72.9205 1.38269 71.031C1.41773 70.1122 1.68191 69.2469 2.11023 68.6326C2.52945 68.0315 3.08053 67.6961 3.74793 67.696V66.3162C2.53534 66.3162 1.59759 66.9579 0.979372 67.8445C0.370385 68.718 0.047715 69.8525 0.00476232 70.9783C-0.0789561 73.1784 0.940342 75.7821 3.63465 76.2312C5.83732 76.5982 7.55506 76.2327 9.08289 75.2302C10.5664 74.2567 11.8269 72.7082 13.1932 70.8298C14.5191 69.0071 16.2841 68.4471 17.9423 68.4314C19.3901 68.4178 20.7324 68.8243 21.5438 69.1697C21.5063 70.9609 22.1405 72.8792 23.7489 74.6482C27.4851 78.7568 32.3932 77.2226 35.3475 76.5662L35.3973 76.5544L35.4462 76.5369C40.0856 74.7526 41.5926 72.1746 44.9384 68.4949C46.6689 66.5916 48.401 64.6179 50.4491 63.2664C52.4616 61.9385 54.7514 61.2335 57.6112 61.8689L57.618 61.8699L57.6259 61.8718C60.0736 62.3614 61.9753 63.4099 63.2216 64.8503C64.4579 66.2796 65.0911 68.1422 64.9364 70.3591C64.2867 75.8179 60.1849 78.5283 56.2108 77.614C54.3189 77.1392 53.3583 76.238 52.9862 75.156C52.5993 74.0302 52.7822 72.5224 53.5975 70.7234C54.1782 69.5693 55.0439 69.0634 55.9003 68.8757C56.7897 68.681 57.6813 68.8295 58.2089 69.0212L58.4442 68.3728L58.6805 67.7253C57.9547 67.4615 56.7941 67.2674 55.6044 67.5281C54.3839 67.7956 53.145 68.5424 52.3583 70.115L52.3466 70.1384C51.4581 72.0928 51.1296 73.9987 51.6815 75.6043C52.2491 77.2549 53.6799 78.4028 55.8846 78.9539L55.8964 78.9578L55.8973 78.9568C60.8059 80.0888 65.5848 76.6539 66.3085 70.5046L66.3104 70.489L66.3114 70.4734C66.4606 68.3833 65.9983 66.5108 65.0106 64.9529C66.5829 65.9721 68.4805 66.4521 70.6034 66.3005L70.619 66.2996L70.6346 66.2976Z" fill="#2A2722"/>
</svg>
