<svg width="80" height="80" viewBox="0 0 80 80" fill="none" xmlns="http://www.w3.org/2000/svg">
<path d="M12.873 8.66797C13.5965 2.51825 18.3743 -0.917946 23.2822 0.213867L23.2832 0.212891L23.2959 0.216797C25.5 0.768025 26.9306 1.91678 27.498 3.56738C28.0498 5.17311 27.7203 7.07857 26.832 9.0332L26.8271 9.04492L26.8213 9.05664C26.0347 10.6299 24.7958 11.3759 23.5752 11.6436C22.3856 11.9042 21.2257 11.7112 20.5 11.4473L20.7354 10.7988L20.9717 10.1514C21.499 10.3431 22.3903 10.4915 23.2793 10.2969C24.1366 10.1089 25.0034 9.60202 25.584 8.44434C26.3975 6.64701 26.58 5.14082 26.1934 4.01562C25.844 2.99955 24.9758 2.14235 23.3057 1.64844L22.9609 1.55469C18.9904 0.646087 14.8941 3.35708 14.2451 8.81348C14.0905 11.0306 14.7241 12.8928 15.96 14.3223C17.206 15.7631 19.1072 16.8121 21.5547 17.3018L21.5615 17.3037L21.5693 17.3047C24.4286 17.9401 26.7183 17.2354 28.7305 15.9072C30.7781 14.5555 32.5091 12.5813 34.2393 10.6777C37.5844 6.99741 39.0917 4.41936 43.7305 2.63477L43.7783 2.61621L43.8281 2.60547C46.7819 1.94896 51.6901 0.414281 55.4258 4.52344C57.0342 6.29302 57.6687 8.21226 57.6309 10.0039C58.4421 10.3492 59.7837 10.7557 61.2305 10.7422C62.8882 10.7265 64.6528 10.1658 65.9785 8.34277C67.3445 6.46414 68.6057 4.91517 70.0889 3.94141C71.6163 2.93885 73.3341 2.57352 75.5361 2.94043C78.2303 3.38961 79.2497 5.99394 79.166 8.19434C79.1231 9.3204 78.8003 10.4554 78.1914 11.3291C77.5733 12.2158 76.6353 12.8574 75.4229 12.8574V11.4775C76.0898 11.4775 76.6404 11.1421 77.0596 10.541C77.4879 9.92646 77.7521 9.06077 77.7871 8.1416C77.8589 6.25139 76.9981 4.5823 75.3096 4.30078C73.4112 3.98446 72.0521 4.30287 70.8457 5.09473C69.595 5.91587 68.4617 7.27291 67.0938 9.1543C65.454 11.4092 63.2302 12.1033 61.2432 12.1221C59.7705 12.1358 58.4106 11.7814 57.458 11.4209C57.0591 13.2079 56.0087 14.773 54.6465 15.7949C51.7254 17.986 47.2943 18.7485 43.583 16.1504L43.9785 15.585L44.374 15.0205C47.4985 17.2077 51.2708 16.6023 53.8184 14.6914C56.2764 12.8475 57.5102 8.86727 54.4053 5.45117C51.3232 2.06107 47.3722 3.22628 44.1836 3.93848C39.9703 5.57082 38.7387 7.77794 35.2598 11.6055C33.5723 13.462 31.7146 15.5902 29.4902 17.0586C27.23 18.5505 24.5624 19.3832 21.2695 18.6514C19.5943 18.3145 18.1063 17.7288 16.8633 16.915C17.7014 18.1726 18.3053 19.6847 18.6484 21.3926L18.7129 21.6992C19.3278 24.8517 18.5006 27.4234 17.0557 29.6133C15.5875 31.8381 13.4598 33.6969 11.6035 35.3848C7.77702 38.864 5.57052 40.0955 3.93848 44.3086C3.2264 47.4981 2.06041 51.4501 5.45117 54.5332C8.8666 57.6385 12.8459 56.4048 14.6895 53.9463C16.5998 51.3983 17.2045 47.6249 15.0176 44.5L15.583 44.1045L16.1475 43.709C18.7452 47.4208 17.9836 51.8528 15.793 54.7744C14.7712 56.1369 13.2059 57.1879 11.4189 57.5869C11.7795 58.5399 12.133 59.9001 12.1191 61.373C12.1003 63.3604 11.407 65.5845 9.15234 67.2246C7.27127 68.5929 5.91467 69.7255 5.09375 70.9766C4.30195 72.1833 3.98343 73.5424 4.2998 75.4414C4.58135 77.1304 6.25016 77.9918 8.13965 77.9199C9.05848 77.8849 9.92373 77.6207 10.5381 77.1924C11.1392 76.7732 11.4746 76.2221 11.4746 75.5547H12.8545C12.8545 76.7673 12.2128 77.705 11.3262 78.3232C10.4527 78.9322 9.31819 79.2549 8.19238 79.2979C5.99229 79.3816 3.38854 78.3623 2.93945 75.668C2.5725 73.4653 2.93795 71.7476 3.94043 70.2197C4.91395 68.7362 6.46246 67.4757 8.34082 66.1094C10.1635 64.7835 10.7235 63.0185 10.7393 61.3604C10.7529 59.9125 10.3463 58.5702 10.001 57.7588C8.20979 57.7963 6.29145 57.1621 4.52246 55.5537C0.413907 51.8175 1.94805 46.9094 2.60449 43.9551L2.61621 43.9053L2.63379 43.8564C4.41806 39.217 6.99608 37.71 10.6758 34.3643C12.5791 32.6337 14.5528 30.9016 15.9043 28.8535C17.2322 26.8411 17.9371 24.5512 17.3018 21.6914L17.3008 21.6846L17.2988 21.6768C16.8092 19.229 15.7608 17.3273 14.3203 16.0811C12.891 14.8447 11.0285 14.2115 8.81152 14.3662C3.35276 15.0159 0.642393 19.1177 1.55664 23.0918C2.03142 24.9837 2.93267 25.9443 4.01465 26.3164C5.14048 26.7034 6.6483 26.5204 8.44727 25.7051C9.60135 25.1245 10.1073 24.2588 10.2949 23.4023C10.4897 22.5129 10.3412 21.6213 10.1494 21.0938L10.7979 20.8584L11.4453 20.6221C11.7092 21.3479 11.9032 22.5085 11.6426 23.6982C11.375 24.9187 10.6282 26.1576 9.05566 26.9443L9.03223 26.9561C7.07785 27.8445 5.172 28.173 3.56641 27.6211C1.91575 27.0536 0.767908 25.6227 0.216797 23.418L0.212891 23.4062L0.213867 23.4053C-0.918128 18.4967 2.51679 13.7178 8.66602 12.9941L8.68164 12.9922L8.69727 12.9912C10.7873 12.842 12.6598 13.3043 14.2178 14.292C13.1985 12.7198 12.7185 10.8221 12.8701 8.69922L12.8711 8.68359L12.873 8.66797Z" fill="#2A2722"/>
</svg>
