<svg width="400" height="80" viewBox="0 0 400 80" fill="none" xmlns="http://www.w3.org/2000/svg">
<path d="M12.873 8.66797C13.5965 2.51825 18.3743 -0.917946 23.2822 0.213867L23.2832 0.212891L23.2959 0.216797C25.5 0.768025 26.9306 1.91678 27.498 3.56738C28.0498 5.17311 27.7203 7.07857 26.832 9.0332L26.8271 9.04492L26.8213 9.05664C26.0347 10.6299 24.7958 11.3759 23.5752 11.6436C22.3856 11.9042 21.2257 11.7112 20.5 11.4473L20.7354 10.7988L20.9717 10.1514C21.499 10.3431 22.3903 10.4915 23.2793 10.2969C24.1366 10.1089 25.0034 9.60202 25.584 8.44434C26.3975 6.64701 26.58 5.14082 26.1934 4.01562C25.844 2.99955 24.9758 2.14235 23.3057 1.64844L22.9609 1.55469C18.9904 0.646087 14.8941 3.35708 14.2451 8.81348C14.0905 11.0306 14.7241 12.8928 15.96 14.3223C17.206 15.7631 19.1072 16.8121 21.5547 17.3018L21.5615 17.3037L21.5693 17.3047C24.4286 17.9401 26.7183 17.2354 28.7305 15.9072C30.7781 14.5555 32.5091 12.5813 34.2393 10.6777C37.5844 6.99741 39.0917 4.41936 43.7305 2.63477L43.7783 2.61621L43.8281 2.60547C46.7819 1.94896 51.6901 0.414281 55.4258 4.52344C57.0342 6.29302 57.6687 8.21226 57.6309 10.0039C58.4421 10.3492 59.7837 10.7557 61.2305 10.7422C62.8882 10.7265 64.6528 10.1658 65.9785 8.34277C67.3445 6.46414 68.6057 4.91517 70.0889 3.94141C71.6163 2.93885 73.3341 2.57352 75.5361 2.94043C78.2303 3.38961 79.2497 5.99394 79.166 8.19434C79.1231 9.3204 78.8003 10.4554 78.1914 11.3291C77.5733 12.2158 76.6353 12.8574 75.4229 12.8574V11.4775C76.0898 11.4775 76.6404 11.1421 77.0596 10.541C77.4879 9.92646 77.7521 9.06077 77.7871 8.1416C77.8589 6.25139 76.9981 4.5823 75.3096 4.30078C73.4112 3.98446 72.0521 4.30287 70.8457 5.09473C69.595 5.91587 68.4617 7.27291 67.0938 9.1543C65.454 11.4092 63.2302 12.1033 61.2432 12.1221C59.7705 12.1358 58.4106 11.7814 57.458 11.4209C57.0591 13.2079 56.0087 14.773 54.6465 15.7949C51.7254 17.986 47.2943 18.7485 43.583 16.1504L43.9785 15.585L44.374 15.0205C47.4985 17.2077 51.2708 16.6023 53.8184 14.6914C56.2764 12.8475 57.5102 8.86727 54.4053 5.45117C51.3232 2.06107 47.3722 3.22628 44.1836 3.93848C39.9703 5.57082 38.7387 7.77794 35.2598 11.6055C33.5723 13.462 31.7146 15.5902 29.4902 17.0586C27.23 18.5505 24.5624 19.3832 21.2695 18.6514C19.5943 18.3145 18.1063 17.7288 16.8633 16.915C17.7014 18.1726 18.3053 19.6847 18.6484 21.3926L18.7129 21.6992C19.3278 24.8517 18.5006 27.4234 17.0557 29.6133C15.5875 31.8381 13.4598 33.6969 11.6035 35.3848C7.77702 38.864 5.57052 40.0955 3.93848 44.3086C3.2264 47.4981 2.06041 51.4501 5.45117 54.5332C8.8666 57.6385 12.8459 56.4048 14.6895 53.9463C16.5998 51.3983 17.2045 47.6249 15.0176 44.5L15.583 44.1045L16.1475 43.709C18.7452 47.4208 17.9836 51.8528 15.793 54.7744C14.7712 56.1369 13.2059 57.1879 11.4189 57.5869C11.7795 58.5399 12.133 59.9001 12.1191 61.373C12.1003 63.3604 11.407 65.5845 9.15234 67.2246C7.27127 68.5929 5.91467 69.7255 5.09375 70.9766C4.30195 72.1833 3.98343 73.5424 4.2998 75.4414C4.58135 77.1304 6.25016 77.9918 8.13965 77.9199C9.05848 77.8849 9.92373 77.6207 10.5381 77.1924C11.1392 76.7732 11.4746 76.2221 11.4746 75.5547H12.8545C12.8545 76.7673 12.2128 77.705 11.3262 78.3232C10.4527 78.9322 9.31819 79.2549 8.19238 79.2979C5.99229 79.3816 3.38854 78.3623 2.93945 75.668C2.5725 73.4653 2.93795 71.7476 3.94043 70.2197C4.91395 68.7362 6.46246 67.4757 8.34082 66.1094C10.1635 64.7835 10.7235 63.0185 10.7393 61.3604C10.7529 59.9125 10.3463 58.5702 10.001 57.7588C8.20979 57.7963 6.29145 57.1621 4.52246 55.5537C0.413907 51.8175 1.94805 46.9094 2.60449 43.9551L2.61621 43.9053L2.63379 43.8564C4.41806 39.217 6.99608 37.71 10.6758 34.3643C12.5791 32.6337 14.5528 30.9016 15.9043 28.8535C17.2322 26.8411 17.9371 24.5512 17.3018 21.6914L17.3008 21.6846L17.2988 21.6768C16.8092 19.229 15.7608 17.3273 14.3203 16.0811C12.891 14.8447 11.0285 14.2115 8.81152 14.3662C3.35276 15.0159 0.642393 19.1177 1.55664 23.0918C2.03142 24.9837 2.93267 25.9443 4.01465 26.3164C5.14048 26.7034 6.6483 26.5204 8.44727 25.7051C9.60135 25.1245 10.1073 24.2588 10.2949 23.4023C10.4897 22.5129 10.3412 21.6213 10.1494 21.0938L10.7979 20.8584L11.4453 20.6221C11.7092 21.3479 11.9032 22.5085 11.6426 23.6982C11.375 24.9187 10.6282 26.1576 9.05566 26.9443L9.03223 26.9561C7.07785 27.8445 5.172 28.173 3.56641 27.6211C1.91575 27.0536 0.767908 25.6227 0.216797 23.418L0.212891 23.4062L0.213867 23.4053C-0.918128 18.4967 2.51679 13.7178 8.66602 12.9941L8.68164 12.9922L8.69727 12.9912C10.7873 12.842 12.6598 13.3043 14.2178 14.292C13.1985 12.7198 12.7185 10.8221 12.8701 8.69922L12.8711 8.68359L12.873 8.66797Z" fill="#2A2722"/>
<path d="M387.127 8.66821C386.404 2.5185 381.626 -0.917702 376.718 0.214111L376.717 0.213135L376.705 0.217041C374.5 0.768269 373.07 1.91703 372.502 3.56763C371.951 5.17336 372.28 7.07881 373.168 9.03345L373.173 9.04517L373.179 9.05688C373.966 10.6302 375.205 11.3762 376.425 11.6438C377.615 11.9045 378.775 11.7114 379.5 11.4475L379.265 10.7991L379.029 10.1516C378.501 10.3433 377.61 10.4918 376.721 10.2971C375.864 10.1092 374.997 9.60226 374.417 8.44458C373.603 6.64726 373.421 5.14107 373.807 4.01587C374.156 2.99979 375.025 2.14259 376.695 1.64868L377.04 1.55493C381.01 0.646332 385.106 3.35733 385.755 8.81372C385.91 11.0308 385.276 12.8931 384.041 14.3225C382.795 15.7634 380.893 16.8123 378.446 17.302L378.439 17.304L378.431 17.3049C375.572 17.9404 373.282 17.2356 371.27 15.9075C369.222 14.5557 367.491 12.5815 365.761 10.678C362.416 6.99765 360.909 4.4196 356.27 2.63501L356.222 2.61646L356.172 2.60571C353.219 1.9492 348.31 0.414525 344.575 4.52368C342.966 6.29327 342.332 8.2125 342.37 10.0042C341.558 10.3494 340.217 10.7559 338.77 10.7424C337.112 10.7267 335.348 10.1661 334.022 8.34302C332.656 6.46438 331.395 4.91542 329.912 3.94165C328.384 2.9391 326.666 2.57376 324.464 2.94067C321.77 3.38986 320.751 5.99419 320.834 8.19458C320.877 9.32064 321.2 10.4556 321.809 11.3293C322.427 12.216 323.365 12.8577 324.578 12.8577V11.4778C323.911 11.4778 323.36 11.1423 322.941 10.5413C322.513 9.92671 322.248 9.06101 322.213 8.14185C322.142 6.25164 323.002 4.58255 324.691 4.30103C326.589 3.9847 327.948 4.30311 329.155 5.09497C330.405 5.91612 331.539 7.27315 332.907 9.15454C334.547 11.4094 336.77 12.1035 338.757 12.1223C340.23 12.136 341.59 11.7817 342.542 11.4211C342.941 13.2082 343.992 14.7732 345.354 15.7952C348.275 17.9862 352.706 18.7487 356.417 16.1506L356.022 15.5852L355.626 15.0208C352.502 17.208 348.73 16.6025 346.182 14.6917C343.724 12.8477 342.49 8.86752 345.595 5.45142C348.677 2.06131 352.628 3.22653 355.817 3.93872C360.03 5.57107 361.262 7.77819 364.741 11.6057C366.428 13.4623 368.286 15.5905 370.51 17.0588C372.77 18.5508 375.438 19.3835 378.731 18.6516C380.406 18.3148 381.894 17.729 383.137 16.9153C382.299 18.1729 381.695 19.685 381.352 21.3928L381.288 21.6995C380.673 24.8519 381.5 27.4237 382.945 29.6135C384.413 31.8384 386.541 33.6972 388.397 35.385C392.223 38.8642 394.43 40.0957 396.062 44.3088C396.774 47.4984 397.94 51.4503 394.549 54.5334C391.134 57.6388 387.155 56.405 385.311 53.9465C383.401 51.3985 382.796 47.6252 384.983 44.5002L384.417 44.1047L383.853 43.7092C381.255 47.421 382.017 51.8531 384.208 54.7747C385.229 56.1371 386.795 57.1882 388.582 57.5872C388.221 58.5401 387.867 59.9003 387.881 61.3733C387.9 63.3606 388.594 65.5848 390.848 67.2249C392.729 68.5931 394.086 69.7258 394.907 70.9768C395.699 72.1836 396.017 73.5427 395.701 75.4417C395.419 77.1306 393.75 77.992 391.861 77.9202C390.942 77.8851 390.077 77.6209 389.462 77.1926C388.861 76.7734 388.526 76.2223 388.526 75.5549H387.146C387.146 76.7675 387.788 77.7053 388.674 78.3235C389.548 78.9325 390.682 79.2551 391.808 79.2981C394.008 79.3818 396.612 78.3625 397.061 75.6682C397.428 73.4655 397.063 71.7478 396.06 70.22C395.087 68.7364 393.538 67.4759 391.66 66.1096C389.837 64.7837 389.277 63.0187 389.261 61.3606C389.248 59.9127 389.654 58.5705 390 57.759C391.791 57.7966 393.709 57.1623 395.478 55.554C399.587 51.8177 398.052 46.9097 397.396 43.9553L397.384 43.9055L397.367 43.8567C395.582 39.2172 393.004 37.7102 389.325 34.3645C387.421 32.6339 385.448 30.9019 384.096 28.8538C382.768 26.8413 382.063 24.5514 382.699 21.6917L382.7 21.6848L382.702 21.677C383.191 19.2292 384.24 17.3275 385.68 16.0813C387.109 14.845 388.972 14.2117 391.189 14.3665C396.648 15.0161 399.358 19.118 398.444 23.092C397.969 24.9839 397.068 25.9445 395.986 26.3167C394.86 26.7036 393.352 26.5207 391.553 25.7053C390.399 25.1247 389.893 24.259 389.706 23.4026C389.511 22.5132 389.659 21.6215 389.851 21.094L389.203 20.8586L388.555 20.6223C388.291 21.3481 388.097 22.5087 388.358 23.6985C388.625 24.9189 389.372 26.1579 390.945 26.9446L390.968 26.9563C392.923 27.8448 394.828 28.1732 396.434 27.6213C398.085 27.0538 399.233 25.6229 399.784 23.4182L399.788 23.4065L399.787 23.4055C400.919 18.4969 397.484 13.7181 391.334 12.9944L391.319 12.9924L391.303 12.9915C389.213 12.8422 387.341 13.3046 385.783 14.2922C386.802 12.72 387.282 10.8223 387.13 8.69946L387.129 8.68384L387.127 8.66821Z" fill="#2A2722"/>
</svg>
