<svg width="32" height="32" viewBox="0 0 32 32" fill="none" xmlns="http://www.w3.org/2000/svg">
<path d="M18.1484 11.5015L23.5811 8.28955L23.8867 8.10889L23.7139 8.41943L20.5859 14.0464L31.2363 15.9038L31.2383 16.0933L20.499 18.147L23.7139 23.5767L23.8994 23.8901L23.584 23.7095L18.0449 20.5444L16.0977 31.2329L15.9082 31.2339L13.8574 20.4956L8.42578 23.7085L8.12012 23.8892L8.29297 23.5786L11.4199 17.9497L0.771484 16.0933L0.769531 15.9038L11.5088 13.8491L8.29492 8.42139L8.10938 8.10791L8.42578 8.28857L13.9609 11.4556L15.9082 0.766113L16.0977 0.765137L18.1484 11.5015ZM16.0996 30.1479L17.874 20.4048L16.707 17.8032L16.0996 16.4507V30.1479ZM8.9873 23.1509L13.8525 20.2739L15.6729 16.4653L8.9873 23.1509ZM23.1592 23.0171L20.2783 18.1528L16.4707 16.3286L23.1592 23.0171ZM11.5586 17.7778L14.7559 16.4233L15.5293 16.0952H1.90234L11.5586 17.7778ZM16.4775 15.9028H30.1113L20.4482 14.2183L16.4775 15.9028ZM11.7295 13.8433L12.4629 14.1948L15.5371 15.6675L8.84863 8.979L11.7295 13.8433ZM14.1318 11.5942L15.9072 15.5503V1.84619L14.1318 11.5942ZM18.1543 11.7212L16.333 15.5317L23.0205 8.84424L18.1543 11.7212Z" fill="#1B1A18"/>
<path d="M16 0C24.8368 0 32 7.16325 32 16C32 24.8368 24.8368 32 16 32C7.16325 32 0 24.8368 0 16C3.2067e-05 7.16327 7.16327 3.2069e-05 16 0ZM16 0.384766C7.37602 0.384798 0.384798 7.37602 0.384766 16C0.384766 24.624 7.376 31.6152 16 31.6152C24.624 31.6152 31.6152 24.624 31.6152 16C31.6152 7.376 24.624 0.384766 16 0.384766ZM3.36621 16.4482C3.59659 23.0599 8.9036 28.3789 15.5098 28.6309L15.6582 29.4082C8.51242 29.2294 2.75425 23.4621 2.59082 16.3125L3.36621 16.4482ZM29.4082 16.3457C29.2277 23.4829 23.4718 29.2343 16.333 29.4082L16.4736 28.6318C23.0723 28.3888 28.3773 23.0901 28.6309 16.4941L29.4082 16.3457ZM21.8271 22.5947C20.5543 23.7202 18.9539 24.4815 17.1865 24.7197L17.2588 24.3223C18.8542 24.083 20.3013 23.3944 21.4717 22.3916L21.8271 22.5947ZM10.501 22.3691C11.6621 23.3725 13.0994 24.0636 14.6846 24.3125L14.7607 24.7119C13.0045 24.4643 11.4159 23.6998 10.1523 22.5752L10.501 22.3691ZM24.7119 17.2441C24.4638 18.9973 23.6994 20.5828 22.5771 21.8447L22.3701 21.4961C23.3715 20.3365 24.0622 18.9026 24.3115 17.3203L24.7119 17.2441ZM7.66992 17.1982C7.89915 18.8062 8.58298 20.2665 9.58691 21.4473L9.3877 21.8057C8.26002 20.5223 7.4985 18.9096 7.27051 17.1289L7.66992 17.1982ZM16.3486 2.5918C23.4896 2.77397 29.2422 8.53759 29.4082 15.6826L28.6328 15.5479C28.4005 8.94028 23.0988 3.62339 16.4971 3.36816L16.3486 2.5918ZM15.5332 3.36719C8.9318 3.60685 3.62229 8.90718 3.36816 15.5049L2.5918 15.6533C2.77295 8.51438 8.53224 2.76129 15.6738 2.59082L15.5332 3.36719ZM22.6162 10.1973C23.7411 11.4788 24.4979 13.0893 24.7266 14.8662L24.3291 14.7969C24.0994 13.1928 23.418 11.7355 22.417 10.5566L22.6162 10.1973ZM9.63574 10.4961C8.63113 11.6567 7.93751 13.0935 7.6875 14.6787L7.28711 14.7549C7.53589 12.9985 8.30285 11.4095 9.42871 10.1465L9.63574 10.4961ZM17.2461 7.28809C19.0004 7.53676 20.5874 8.30191 21.8496 9.42578L21.5 9.63281C20.3402 8.63013 18.9055 7.93734 17.3223 7.6875L17.2461 7.28809ZM14.748 7.67676C13.1517 7.91488 11.7026 8.60193 10.5312 9.60449L10.1777 9.40137C11.4514 8.27669 13.0524 7.51621 14.8203 7.2793L14.748 7.67676Z" fill="#1B1A18"/>
</svg>
