<svg width="32" height="32" viewBox="0 0 32 32" fill="none" xmlns="http://www.w3.org/2000/svg">
<path d="M13.2073 0.492825C14.0545 0.105124 15.0114 -0.0520821 15.8852 0.0162375C16.7357 0.0827425 17.5757 0.370178 18.1403 0.949371L18.1669 0.977165L18.1836 0.994848L18.1987 1.01389C19.0001 2.02614 19.3089 2.96534 19.3572 3.87101C19.4037 4.74496 19.2018 5.56845 19.0537 6.28428C18.7545 7.73057 18.474 11.6902 18.3175 13.7773L18.3175 13.7774C18.1662 15.8207 18.4203 20.0856 18.4731 21.5382C18.5011 22.3083 18.3969 22.9551 18.1689 23.5174C17.9405 24.0809 17.5998 24.5297 17.1966 24.9185L17.1455 24.9678L17.0838 25.0026C16.2205 25.4899 15.432 25.6764 14.6733 25.4068C13.9546 25.1513 13.3985 24.528 12.8737 23.7723L12.8577 23.7494L12.8442 23.7251C12.2712 22.6937 12.0345 21.5062 11.9234 20.1727C11.813 18.8485 11.8228 17.3027 11.7821 15.5713C11.7749 15.2637 12.0184 15.0084 12.326 15.0012C12.6336 14.994 12.8889 15.2375 12.8961 15.5451C12.938 17.3277 12.9272 18.8 13.0339 20.0802C13.1387 21.3389 13.3536 22.3353 13.8049 23.1595C14.3058 23.8767 14.6869 24.229 15.0465 24.3568C15.3605 24.4684 15.7789 24.4469 16.4733 24.067C16.7656 23.7756 16.9871 23.4665 17.1362 23.0988C17.2942 22.709 17.383 22.2237 17.3595 21.5786C17.3094 20.2008 17.0488 15.8201 17.2062 13.6951L17.2063 13.6946C17.3585 11.6647 17.6442 7.59689 17.9625 6.05852C18.1232 5.28197 18.2815 4.62591 18.2444 3.93027C18.2093 3.27166 17.9938 2.55743 17.3409 1.72567C17.0279 1.40597 16.4856 1.1809 15.7983 1.12716C15.1123 1.07352 14.3496 1.1979 13.6811 1.50159C13.091 1.80588 12.6231 2.40307 12.2276 3.29372C11.8304 4.18819 11.5377 5.30535 11.255 6.55189L11.2545 6.55443L11.2539 6.55692C11.0416 7.45424 10.9263 8.9455 10.8735 10.4849C10.8213 12.0075 10.8314 13.5282 10.8568 14.4624L10.8693 14.8002C10.9385 16.5989 11.1006 19.9715 11.2901 21.4884C11.5429 23.4853 12.0439 25.6447 12.46 27.2581L12.479 27.3292C12.8857 28.8202 13.7713 30.2161 15.0702 30.7094C16.1855 31.1008 17.7766 30.8611 18.8525 29.8173C19.6879 28.8847 20.1066 27.3884 20.0106 25.6362C19.931 24.6689 19.8153 23.5165 19.7155 22.3254C19.6196 21.1813 19.545 20.0714 19.5724 19.4C19.6008 18.7063 19.7812 17.867 19.9778 17.1495C20.1746 16.4309 20.4025 15.782 20.5482 15.4612C20.6756 15.1811 21.0059 15.0572 21.286 15.1845C21.5661 15.3119 21.69 15.6422 21.5627 15.9223C21.4512 16.1676 21.2415 16.7538 21.0524 17.444C20.8631 18.1352 20.709 18.8784 20.6859 19.4454C20.6618 20.0349 20.7288 21.0735 20.8259 22.2323C20.913 23.2717 21.0312 24.481 21.1072 25.3775L21.1219 25.5525L21.1225 25.5599L21.1229 25.5672C21.2308 27.5092 20.7789 29.3493 19.6674 30.5778L19.6561 30.5903L19.6441 30.6021C18.2515 31.9656 16.1995 32.2897 14.6946 31.7586L14.6891 31.7566L14.6835 31.7545C12.8675 31.0698 11.8199 29.2112 11.3821 27.5405L11.3815 27.5384C10.9615 25.91 10.4464 23.6961 10.1847 21.6284L10.1846 21.6279L10.1845 21.6275C9.97504 19.9516 9.803 16.1687 9.74317 14.5024L9.74299 14.4976C9.717 13.5445 9.70666 11.9981 9.75986 10.4467C9.81248 8.91216 9.92851 7.32272 10.1683 6.30545C10.4517 5.05612 10.7637 3.84465 11.2092 2.84148C11.654 1.83982 12.2636 0.97218 13.1866 0.502845L13.1968 0.497631L13.2073 0.492825Z" fill="black"/>
<path d="M10.6647 5.03724C9.30573 4.92251 8.44091 5.46083 7.15253 6.35215C7.46433 5.91385 8.2097 4.95781 8.69682 4.64012C9.31454 4.243 10.1705 3.8106 11.0353 3.81942C11.9001 3.82825 12.6149 4.0136 13.0914 4.45483C13.1885 4.5519 13.3385 5.03724 12.8885 5.27551C12.4384 5.51378 11.503 5.16079 10.6647 5.03724Z" fill="black"/>
<path d="M20.0972 7.06561C21.4242 7.3805 22.0779 8.16172 23.024 9.41045C22.8645 8.89676 22.4545 7.75592 22.0908 7.30214C21.6278 6.73215 20.9494 6.05432 20.1249 5.79295C19.3005 5.53158 18.5636 5.48472 17.9732 5.75529C17.8507 5.81724 17.5568 6.23157 17.9101 6.59834C18.2633 6.9651 19.2622 6.9215 20.0972 7.06561Z" fill="black"/>
<path d="M9.77533 6.62996C11.773 6.63008 13.2714 7.89125 13.2714 9.31453C13.2711 10.7376 11.7728 11.998 9.77533 11.9981C7.77769 11.9981 6.27854 10.7377 6.27826 9.31453C6.27826 7.89119 7.7775 6.62996 9.77533 6.62996Z" fill="white" stroke="black" stroke-width="0.556693"/>
<ellipse cx="9.7755" cy="9.31458" rx="2.0251" ry="1.45162" fill="black"/>
<path d="M18.9084 8.29702C20.903 8.40751 22.3294 9.74954 22.2508 11.1706C22.1719 12.5916 20.6062 13.7672 18.6118 13.657C16.6172 13.5466 15.19 12.2053 15.2683 10.7843C15.347 9.36312 16.9136 8.18665 18.9084 8.29702Z" fill="white" stroke="black" stroke-width="0.556693"/>
<ellipse cx="18.7594" cy="10.9778" rx="2.0251" ry="1.45162" transform="rotate(3.16708 18.7594 10.9778)" fill="black"/>
</svg>
